<mxfile host="Electron" modified="2023-11-11T23:59:35.725Z" agent="Mozilla/5.0 (Macintosh; Intel Mac OS X 10_15_7) AppleWebKit/537.36 (KHTML, like Gecko) draw.io/22.0.3 Chrome/114.0.5735.289 Electron/25.8.4 Safari/537.36" etag="Qmd_R6aujZaHK13oEcTa" version="22.0.3" type="device">
  <diagram name="Page-1" id="bv8-5to0nmU1Y6hkWTTk">
    <mxGraphModel dx="1591" dy="1254" grid="1" gridSize="10" guides="1" tooltips="1" connect="1" arrows="1" fold="1" page="1" pageScale="1" pageWidth="850" pageHeight="1100" math="0" shadow="0">
      <root>
        <mxCell id="0" />
        <mxCell id="1" parent="0" />
        <mxCell id="L8IQEEYvK53Zon8VMzO0-1" value="Detailed View" style="strokeWidth=1;shadow=0;dashed=0;align=center;html=1;shape=mxgraph.mockup.containers.window;align=left;verticalAlign=top;spacingLeft=8;strokeColor2=#008cff;strokeColor3=#c4c4c4;fontColor=#666666;mainText=;fontSize=17;labelBackgroundColor=none;whiteSpace=wrap;" vertex="1" parent="1">
          <mxGeometry x="320" y="190" width="1080" height="720" as="geometry" />
        </mxCell>
        <mxCell id="L8IQEEYvK53Zon8VMzO0-33" style="edgeStyle=orthogonalEdgeStyle;rounded=0;orthogonalLoop=1;jettySize=auto;html=1;" edge="1" parent="1" source="L8IQEEYvK53Zon8VMzO0-2" target="L8IQEEYvK53Zon8VMzO0-30">
          <mxGeometry relative="1" as="geometry" />
        </mxCell>
        <mxCell id="L8IQEEYvK53Zon8VMzO0-2" value="" style="verticalLabelPosition=bottom;shadow=0;dashed=0;align=center;html=1;verticalAlign=top;strokeWidth=1;shape=mxgraph.mockup.graphics.simpleIcon;strokeColor=#999999;" vertex="1" parent="1">
          <mxGeometry x="515" y="300" width="100" height="100" as="geometry" />
        </mxCell>
        <mxCell id="L8IQEEYvK53Zon8VMzO0-3" value="" style="verticalLabelPosition=bottom;shadow=0;dashed=0;align=center;html=1;verticalAlign=top;strokeWidth=1;shape=mxgraph.mockup.graphics.simpleIcon;strokeColor=#999999;" vertex="1" parent="1">
          <mxGeometry x="515" y="440" width="100" height="100" as="geometry" />
        </mxCell>
        <mxCell id="L8IQEEYvK53Zon8VMzO0-4" value="" style="verticalLabelPosition=bottom;shadow=0;dashed=0;align=center;html=1;verticalAlign=top;strokeWidth=1;shape=mxgraph.mockup.graphics.simpleIcon;strokeColor=#999999;" vertex="1" parent="1">
          <mxGeometry x="515" y="590" width="100" height="100" as="geometry" />
        </mxCell>
        <mxCell id="L8IQEEYvK53Zon8VMzO0-5" value="" style="verticalLabelPosition=bottom;shadow=0;dashed=0;align=center;html=1;verticalAlign=top;strokeWidth=1;shape=mxgraph.mockup.graphics.simpleIcon;strokeColor=#999999;" vertex="1" parent="1">
          <mxGeometry x="520" y="740" width="100" height="100" as="geometry" />
        </mxCell>
        <mxCell id="L8IQEEYvK53Zon8VMzO0-6" value="Torso" style="strokeWidth=1;shadow=0;dashed=0;align=center;html=1;shape=mxgraph.mockup.text.textBox;fontColor=#666666;align=left;fontSize=17;spacingLeft=4;spacingTop=-3;whiteSpace=wrap;strokeColor=#666666;mainText=" vertex="1" parent="1">
          <mxGeometry x="540" y="410" width="50" height="30" as="geometry" />
        </mxCell>
        <mxCell id="L8IQEEYvK53Zon8VMzO0-7" value="Legs" style="strokeWidth=1;shadow=0;dashed=0;align=center;html=1;shape=mxgraph.mockup.text.textBox;fontColor=#666666;align=left;fontSize=17;spacingLeft=4;spacingTop=-3;whiteSpace=wrap;strokeColor=#666666;mainText=" vertex="1" parent="1">
          <mxGeometry x="540" y="560" width="50" height="30" as="geometry" />
        </mxCell>
        <mxCell id="L8IQEEYvK53Zon8VMzO0-8" value="Feet" style="strokeWidth=1;shadow=0;dashed=0;align=center;html=1;shape=mxgraph.mockup.text.textBox;fontColor=#666666;align=left;fontSize=17;spacingLeft=4;spacingTop=-3;whiteSpace=wrap;strokeColor=#666666;mainText=" vertex="1" parent="1">
          <mxGeometry x="540" y="710" width="50" height="30" as="geometry" />
        </mxCell>
        <mxCell id="L8IQEEYvK53Zon8VMzO0-9" value="" style="html=1;shadow=0;dashed=0;shape=mxgraph.bootstrap.rrect;rSize=5;strokeColor=#DEE2E6;html=1;whiteSpace=wrap;fillColor=#ffffff;fontColor=#0085FC;" vertex="1" parent="1">
          <mxGeometry x="480" y="850" width="180" height="30" as="geometry" />
        </mxCell>
        <mxCell id="L8IQEEYvK53Zon8VMzO0-10" value="&lt;&lt;" style="strokeColor=inherit;fillColor=inherit;gradientColor=inherit;fontColor=inherit;html=1;shadow=0;dashed=0;shape=mxgraph.bootstrap.leftButton;rSize=5;perimeter=none;whiteSpace=wrap;resizeHeight=1;fontSize=14;" vertex="1" parent="L8IQEEYvK53Zon8VMzO0-9">
          <mxGeometry width="30" height="28.125" relative="1" as="geometry" />
        </mxCell>
        <mxCell id="L8IQEEYvK53Zon8VMzO0-11" value="1" style="strokeColor=inherit;fillColor=inherit;gradientColor=inherit;fontColor=inherit;html=1;shadow=0;dashed=0;perimeter=none;whiteSpace=wrap;resizeHeight=1;fontSize=14;" vertex="1" parent="L8IQEEYvK53Zon8VMzO0-9">
          <mxGeometry width="30" height="28.125" relative="1" as="geometry">
            <mxPoint x="30" as="offset" />
          </mxGeometry>
        </mxCell>
        <mxCell id="L8IQEEYvK53Zon8VMzO0-12" value="2" style="strokeColor=inherit;fillColor=inherit;gradientColor=inherit;fontColor=inherit;html=1;shadow=0;dashed=0;perimeter=none;whiteSpace=wrap;resizeHeight=1;fontSize=14;" vertex="1" parent="L8IQEEYvK53Zon8VMzO0-9">
          <mxGeometry width="30" height="28.125" relative="1" as="geometry">
            <mxPoint x="60" as="offset" />
          </mxGeometry>
        </mxCell>
        <mxCell id="L8IQEEYvK53Zon8VMzO0-13" value="3" style="strokeColor=inherit;fillColor=inherit;gradientColor=inherit;fontColor=inherit;html=1;shadow=0;dashed=0;perimeter=none;whiteSpace=wrap;resizeHeight=1;fontSize=14;" vertex="1" parent="L8IQEEYvK53Zon8VMzO0-9">
          <mxGeometry width="30" height="28.125" relative="1" as="geometry">
            <mxPoint x="90" as="offset" />
          </mxGeometry>
        </mxCell>
        <mxCell id="L8IQEEYvK53Zon8VMzO0-14" value="&gt;&gt;" style="strokeColor=inherit;fillColor=inherit;gradientColor=inherit;fontColor=inherit;html=1;shadow=0;dashed=0;shape=mxgraph.bootstrap.rightButton;rSize=5;perimeter=none;whiteSpace=wrap;resizeHeight=1;fontSize=14;" vertex="1" parent="L8IQEEYvK53Zon8VMzO0-9">
          <mxGeometry x="1" width="30" height="28.125" relative="1" as="geometry">
            <mxPoint x="-30" as="offset" />
          </mxGeometry>
        </mxCell>
        <mxCell id="L8IQEEYvK53Zon8VMzO0-15" value="Head" style="strokeWidth=1;shadow=0;dashed=0;align=center;html=1;shape=mxgraph.mockup.text.textBox;fontColor=#666666;align=left;fontSize=17;spacingLeft=4;spacingTop=-3;whiteSpace=wrap;strokeColor=#666666;mainText=" vertex="1" parent="1">
          <mxGeometry x="540" y="270" width="50" height="30" as="geometry" />
        </mxCell>
        <mxCell id="L8IQEEYvK53Zon8VMzO0-16" value="" style="verticalLabelPosition=bottom;shadow=0;dashed=0;align=center;html=1;verticalAlign=top;strokeWidth=1;shape=mxgraph.mockup.forms.splitter;strokeColor=#999999;direction=north;" vertex="1" parent="1">
          <mxGeometry x="730" y="260" width="10" height="600" as="geometry" />
        </mxCell>
        <mxCell id="L8IQEEYvK53Zon8VMzO0-17" value="" style="verticalLabelPosition=bottom;shadow=0;dashed=0;align=center;html=1;verticalAlign=top;strokeWidth=1;shape=mxgraph.mockup.forms.splitter;strokeColor=#999999;" vertex="1" parent="1">
          <mxGeometry x="782" y="650" width="560" height="10" as="geometry" />
        </mxCell>
        <mxCell id="L8IQEEYvK53Zon8VMzO0-18" value="" style="strokeWidth=1;shadow=0;dashed=0;align=center;html=1;shape=mxgraph.mockup.misc.rrect;rSize=0;strokeColor=#666666;" vertex="1" parent="1">
          <mxGeometry x="862" y="757" width="400" height="75" as="geometry" />
        </mxCell>
        <mxCell id="L8IQEEYvK53Zon8VMzO0-19" value="REVISION HISTORY" style="strokeColor=inherit;fillColor=inherit;gradientColor=inherit;strokeWidth=1;shadow=0;dashed=0;align=center;html=1;shape=mxgraph.mockup.misc.rrect;rSize=0;fontSize=17;fontColor=#999999;whiteSpace=wrap;" vertex="1" parent="L8IQEEYvK53Zon8VMzO0-18">
          <mxGeometry width="400" height="25" as="geometry" />
        </mxCell>
        <mxCell id="L8IQEEYvK53Zon8VMzO0-20" value="REV" style="strokeColor=inherit;fillColor=inherit;gradientColor=inherit;strokeWidth=1;shadow=0;dashed=0;align=center;html=1;shape=mxgraph.mockup.misc.rrect;rSize=0;fontSize=17;fontColor=#999999;whiteSpace=wrap;" vertex="1" parent="L8IQEEYvK53Zon8VMzO0-18">
          <mxGeometry y="25" width="50" height="25" as="geometry" />
        </mxCell>
        <mxCell id="L8IQEEYvK53Zon8VMzO0-21" value="DATE" style="strokeColor=inherit;fillColor=inherit;gradientColor=inherit;strokeWidth=1;shadow=0;dashed=0;align=center;html=1;shape=mxgraph.mockup.misc.rrect;rSize=0;fontSize=17;fontColor=#999999;whiteSpace=wrap;" vertex="1" parent="L8IQEEYvK53Zon8VMzO0-18">
          <mxGeometry x="50" y="25" width="150" height="25" as="geometry" />
        </mxCell>
        <mxCell id="L8IQEEYvK53Zon8VMzO0-22" value="DESCRIPTION" style="strokeColor=inherit;fillColor=inherit;gradientColor=inherit;strokeWidth=1;shadow=0;dashed=0;align=center;html=1;shape=mxgraph.mockup.misc.rrect;rSize=0;fontSize=17;fontColor=#999999;whiteSpace=wrap;" vertex="1" parent="L8IQEEYvK53Zon8VMzO0-18">
          <mxGeometry x="200" y="25" width="200" height="25" as="geometry" />
        </mxCell>
        <mxCell id="L8IQEEYvK53Zon8VMzO0-23" value="A" style="strokeColor=inherit;fillColor=inherit;gradientColor=inherit;strokeWidth=1;shadow=0;dashed=0;align=center;html=1;shape=mxgraph.mockup.misc.rrect;rSize=0;fontSize=17;fontColor=#999999;whiteSpace=wrap;" vertex="1" parent="L8IQEEYvK53Zon8VMzO0-18">
          <mxGeometry y="50" width="50" height="25" as="geometry" />
        </mxCell>
        <mxCell id="L8IQEEYvK53Zon8VMzO0-24" value="10/23/2014" style="strokeColor=inherit;fillColor=inherit;gradientColor=inherit;strokeWidth=1;shadow=0;dashed=0;align=center;html=1;shape=mxgraph.mockup.misc.rrect;rSize=0;fontSize=17;fontColor=#999999;whiteSpace=wrap;" vertex="1" parent="L8IQEEYvK53Zon8VMzO0-18">
          <mxGeometry x="50" y="50" width="150" height="25" as="geometry" />
        </mxCell>
        <mxCell id="L8IQEEYvK53Zon8VMzO0-25" value="Design modified" style="strokeColor=inherit;fillColor=inherit;gradientColor=inherit;strokeWidth=1;shadow=0;dashed=0;align=center;html=1;shape=mxgraph.mockup.misc.rrect;rSize=0;fontSize=17;fontColor=#999999;whiteSpace=wrap;" vertex="1" parent="L8IQEEYvK53Zon8VMzO0-18">
          <mxGeometry x="200" y="50" width="200" height="25" as="geometry" />
        </mxCell>
        <mxCell id="L8IQEEYvK53Zon8VMzO0-30" value="&lt;b&gt;&lt;font style=&quot;font-size: 20px&quot;&gt;Card title&lt;/font&gt;&lt;/b&gt;&lt;br style=&quot;font-size: 14px&quot;&gt;&lt;br style=&quot;font-size: 14px&quot;&gt;Some quick example text to build on the card title and make up the bulk of the card&#39;s content." style="html=1;shadow=0;dashed=0;shape=mxgraph.bootstrap.rrect;rSize=5;strokeColor=#DFDFDF;html=1;whiteSpace=wrap;fillColor=#ffffff;fontColor=#000000;verticalAlign=bottom;align=left;spacing=20;spacingBottom=50;fontSize=14;" vertex="1" parent="1">
          <mxGeometry y="340" width="250" height="350" as="geometry" />
        </mxCell>
        <mxCell id="L8IQEEYvK53Zon8VMzO0-31" value="Image cap" style="html=1;shadow=0;dashed=0;shape=mxgraph.bootstrap.topButton;rSize=5;perimeter=none;whiteSpace=wrap;fillColor=#868E96;strokeColor=#DFDFDF;fontColor=#DEE2E6;resizeWidth=1;fontSize=18;" vertex="1" parent="L8IQEEYvK53Zon8VMzO0-30">
          <mxGeometry width="250" height="180" relative="1" as="geometry" />
        </mxCell>
        <mxCell id="L8IQEEYvK53Zon8VMzO0-32" value="Detailed View" style="html=1;shadow=0;dashed=0;shape=mxgraph.bootstrap.rrect;rSize=5;perimeter=none;whiteSpace=wrap;fillColor=#0085FC;strokeColor=none;fontColor=#ffffff;resizeWidth=1;fontSize=14;" vertex="1" parent="L8IQEEYvK53Zon8VMzO0-30">
          <mxGeometry y="1" width="120" height="40" relative="1" as="geometry">
            <mxPoint x="20" y="-60" as="offset" />
          </mxGeometry>
        </mxCell>
        <mxCell id="L8IQEEYvK53Zon8VMzO0-34" value="Edit" style="html=1;shadow=0;dashed=0;shape=mxgraph.bootstrap.rrect;rSize=5;strokeColor=#0085FC;strokeWidth=1;fillColor=none;fontColor=#0085FC;whiteSpace=wrap;align=center;verticalAlign=middle;spacingLeft=0;fontStyle=0;fontSize=16;spacing=5;" vertex="1" parent="1">
          <mxGeometry x="1262" y="265" width="80" height="40" as="geometry" />
        </mxCell>
        <mxCell id="L8IQEEYvK53Zon8VMzO0-35" value="Delete" style="html=1;shadow=0;dashed=0;shape=mxgraph.bootstrap.rrect;rSize=5;strokeColor=#DB2843;strokeWidth=1;fillColor=none;fontColor=#DB2843;whiteSpace=wrap;align=center;verticalAlign=middle;spacingLeft=0;fontStyle=0;fontSize=16;spacing=5;" vertex="1" parent="1">
          <mxGeometry x="790" y="265" width="80" height="40" as="geometry" />
        </mxCell>
        <mxCell id="L8IQEEYvK53Zon8VMzO0-38" value="Name" style="fillColor=none;strokeColor=none;html=1;fontSize=11;fontStyle=0;align=left;fontColor=#596780;fontStyle=1;fontSize=11" vertex="1" parent="1">
          <mxGeometry x="782" y="342" width="240" height="20" as="geometry" />
        </mxCell>
        <mxCell id="L8IQEEYvK53Zon8VMzO0-39" value="" style="rounded=1;arcSize=9;align=left;spacingLeft=5;strokeColor=#4C9AFF;html=1;strokeWidth=2;fontSize=12" vertex="1" parent="1">
          <mxGeometry x="782" y="367" width="238" height="33" as="geometry" />
        </mxCell>
        <mxCell id="L8IQEEYvK53Zon8VMzO0-40" value="Last Worn" style="fillColor=none;strokeColor=none;html=1;fontSize=11;fontStyle=0;align=left;fontColor=#596780;fontStyle=1;fontSize=11" vertex="1" parent="1">
          <mxGeometry x="1104" y="343.6269387755102" width="150" height="22.04081632653061" as="geometry" />
        </mxCell>
        <mxCell id="L8IQEEYvK53Zon8VMzO0-41" value="Today" style="rounded=1;arcSize=9;fillColor=#ffffff;align=left;spacingLeft=5;strokeColor=#0057D8;html=1;strokeWidth=2;fontColor=#253858;fontSize=12" vertex="1" parent="1">
          <mxGeometry x="1104" y="373.63" width="238" height="36.37" as="geometry" />
        </mxCell>
        <mxCell id="L8IQEEYvK53Zon8VMzO0-42" value="" style="shape=mxgraph.gmdl.calendar;fillColor=#253858;strokeColor=none" vertex="1" parent="L8IQEEYvK53Zon8VMzO0-41">
          <mxGeometry x="1" y="0.5" width="18" height="18" relative="1" as="geometry">
            <mxPoint x="-29" y="-9" as="offset" />
          </mxGeometry>
        </mxCell>
        <mxCell id="L8IQEEYvK53Zon8VMzO0-43" value="Casual&lt;br&gt;Spring&lt;br&gt;Summer" style="html=1;shadow=0;dashed=0;shape=mxgraph.bootstrap.rrect;rSize=5;strokeColor=#CED4DA;html=1;whiteSpace=wrap;fillColor=#FFFFFF;fontColor=#7D868C;align=left;spacingLeft=0;spacing=15;fontSize=14;" vertex="1" parent="1">
          <mxGeometry x="782" y="491.37" width="230" height="128.63" as="geometry" />
        </mxCell>
        <mxCell id="L8IQEEYvK53Zon8VMzO0-45" value="Tags" style="fillColor=none;strokeColor=none;html=1;fontSize=11;fontStyle=0;align=left;fontColor=#596780;fontStyle=1;fontSize=11" vertex="1" parent="1">
          <mxGeometry x="782" y="461.36818317570925" width="240" height="26.341463414634145" as="geometry" />
        </mxCell>
        <mxCell id="L8IQEEYvK53Zon8VMzO0-46" value="Notes" style="fillColor=none;strokeColor=none;html=1;fontSize=11;fontStyle=0;align=left;fontColor=#596780;fontStyle=1;fontSize=11" vertex="1" parent="1">
          <mxGeometry x="1100" y="470" width="240" height="20" as="geometry" />
        </mxCell>
        <mxCell id="L8IQEEYvK53Zon8VMzO0-47" value="Watermelon sqaud" style="rounded=1;arcSize=9;align=left;spacingLeft=5;strokeColor=#4C9AFF;html=1;strokeWidth=2;fontSize=12" vertex="1" parent="1">
          <mxGeometry x="1100" y="495" width="250" height="125" as="geometry" />
        </mxCell>
        <mxCell id="L8IQEEYvK53Zon8VMzO0-48" value="&lt;h1&gt;Mouseover&lt;/h1&gt;&lt;p&gt;Mouseover a populated outfit slot should show the simple view of the outfit component&lt;/p&gt;" style="text;html=1;strokeColor=none;fillColor=none;spacing=5;spacingTop=-20;whiteSpace=wrap;overflow=hidden;rounded=0;" vertex="1" parent="1">
          <mxGeometry x="10" y="200" width="190" height="120" as="geometry" />
        </mxCell>
      </root>
    </mxGraphModel>
  </diagram>
</mxfile>
